<svg width="64" height="64" viewBox="0 0 64 64" fill="none" xmlns="http://www.w3.org/2000/svg" role="img" aria-labelledby="favTitle favDesc">
  <title id="favTitle">GoldGYS Favicon</title>
  <desc id="favDesc">GoldGYS için altın kalkan monogram favicon.</desc>
  <defs>
    <linearGradient id="fgGold" x1="8" y1="6" x2="56" y2="58" gradientUnits="userSpaceOnUse">
      <stop stop-color="#FFF1B8"/>
      <stop offset="0.4" stop-color="#E1B44A"/>
      <stop offset="1" stop-color="#A66A15"/>
    </linearGradient>
    <linearGradient id="fgCore" x1="14" y1="12" x2="50" y2="52" gradientUnits="userSpaceOnUse">
      <stop stop-color="#13283A"/>
      <stop offset="1" stop-color="#223A52"/>
    </linearGradient>
  </defs>
  <path d="M32 4L56 15V31.8C56 45.4 46.4 55.8 32 60C17.6 55.8 8 45.4 8 31.8V15L32 4Z" fill="url(#fgGold)"/>
  <path d="M32 9.6L50 18V31.6C50 42.3 42.9 50.7 32 54.3C21.1 50.7 14 42.3 14 31.6V18L32 9.6Z" fill="url(#fgCore)"/>
  <path d="M39.6 20.4C37.7 19.1 35.3 18.4 32.8 18.4C25.4 18.4 20 23.8 20 31.4C20 39.1 25.3 44.4 33.1 44.4C37.4 44.4 41.2 42.7 43.5 39.8V34.8H33.5V30.4H48V41.2C44.4 46 38.9 48.8 32.3 48.8C21.8 48.8 14.4 41.4 14.4 31.4C14.4 21.4 21.8 14.2 32.5 14.2C37.8 14.2 42.4 15.8 45.8 18.6L39.6 20.4Z" fill="url(#fgGold)"/>
</svg>
