<svg xmlns="http://www.w3.org/2000/svg" aria-hidden="true">
  <symbol id="justice" viewBox="0 0 24 24"><path fill="currentColor" d="M11 3h2v2h3a1 1 0 1 1 0 2h-3v1.1l3.3 1.8-.9 1.7L13 9.8V17h2a1 1 0 1 1 0 2h-2v2h-2v-2H9a1 1 0 0 1 0-2h2V9.8l-2.4 1.8-.9-1.7 3.3-1.8V7H8a1 1 0 0 1 0-2h3Z"/></symbol>
  <symbol id="book" viewBox="0 0 24 24"><path fill="currentColor" d="M5 4.5A1.5 1.5 0 0 1 6.5 3H13v15H6.5A1.5 1.5 0 0 0 5 19.5Zm14-1.5H13v15h6a1 1 0 0 0 1-1V4a1 1 0 0 0-1-1Z"/></symbol>
  <symbol id="bolt" viewBox="0 0 24 24"><path fill="currentColor" d="M13 2 6 12h6l-1 10 9-12h-6l1-8Z"/></symbol>
  <symbol id="chart" viewBox="0 0 24 24"><path fill="currentColor" d="M5 19h3V8H5zm5 0h3V5h-3zm5 0h3v-8h-3z"/></symbol>
  <symbol id="shield" viewBox="0 0 24 24"><path fill="currentColor" d="M12 2 5 5v6c0 4.9 3.3 9 7 10 3.7-1 7-5.1 7-10V5Z"/></symbol>
  <symbol id="spark" viewBox="0 0 24 24"><path fill="currentColor" d="m12 3-2.1 6.4H3l5.5 3.8L6.4 21 12 16.9 17.6 21l-2.1-7.8L21 9.4h-6.9z"/></symbol>
  <symbol id="menu" viewBox="0 0 24 24"><path fill="currentColor" d="M3 6h18v2H3zm0 5h18v2H3zm0 5h18v2H3z"/></symbol>
  <symbol id="moon" viewBox="0 0 24 24"><path fill="currentColor" d="M14.5 3a7.5 7.5 0 0 0-7 11 8.5 8.5 0 1 0 7-11Z"/></symbol>
  <symbol id="sun" viewBox="0 0 24 24"><path fill="currentColor" d="M12 6a6 6 0 1 1 0 12 6 6 0 0 1 0-12Zm0-4 1.2 3.1h-2.4zm0 16.9 1.2 3.1h-2.4zM4.9 4.9 7 6.1 4.9 7.3 3.7 5.1zm12.1 0 1.2 2.2-2.1-1.2zm0 12.2 2.2 1.2-1.2 2.2-2.1-1.2zM4.9 17.1 7 15.9 4.9 14.7l-1.2 2.2zM2 12l3.1-1.2v2.4zm16.9-1.2L22 12l-3.1 1.2Z"/></symbol>
  <symbol id="bell" viewBox="0 0 24 24"><path fill="currentColor" d="M12 3a5 5 0 0 0-5 5v4.3L5 14.5V16h14v-1.5l-2-.2V8a5 5 0 0 0-5-5Zm0 16a2 2 0 0 0 2-2H10a2 2 0 0 0 2 2Z"/></symbol>
  <symbol id="logout" viewBox="0 0 24 24"><path fill="currentColor" d="M11 4h2v5h5v2h-5v5h-2v-5H6v-2h5Zm-7 6h5v2H4Z"/></symbol>
  <symbol id="user" viewBox="0 0 24 24"><path fill="currentColor" d="M12 12a4 4 0 1 0-4-4 4 4 0 0 0 4 4Zm0 2c-3.3 0-6 2.1-6 4.3V21h12v-2.7C18 16.1 15.3 14 12 14Z"/></symbol>
</svg>
