<svg width="420" height="96" viewBox="0 0 420 96" fill="none" xmlns="http://www.w3.org/2000/svg" role="img" aria-labelledby="logoTitle logoDesc">
  <title id="logoTitle">GoldGYS Logo</title>
  <desc id="logoDesc">GoldGYS markası için altın tonlu kalkan ve G monogramından oluşan premium logo.</desc>
  <defs>
    <linearGradient id="goldGradient" x1="10" y1="8" x2="86" y2="88" gradientUnits="userSpaceOnUse">
      <stop stop-color="#FFF4C2"/>
      <stop offset="0.32" stop-color="#F4D978"/>
      <stop offset="0.66" stop-color="#D9A93E"/>
      <stop offset="1" stop-color="#B8821D"/>
    </linearGradient>
    <linearGradient id="goldText" x1="108" y1="16" x2="396" y2="88" gradientUnits="userSpaceOnUse">
      <stop stop-color="#FBE7A3"/>
      <stop offset="0.48" stop-color="#D9A941"/>
      <stop offset="1" stop-color="#B67C1B"/>
    </linearGradient>
    <linearGradient id="shieldCore" x1="16" y1="12" x2="80" y2="84" gradientUnits="userSpaceOnUse">
      <stop stop-color="#102030"/>
      <stop offset="1" stop-color="#1F3448"/>
    </linearGradient>
    <filter id="softGlow" x="-20%" y="-20%" width="140%" height="140%" color-interpolation-filters="sRGB">
      <feDropShadow dx="0" dy="0" stdDeviation="1.8" flood-color="#FFE9A6" flood-opacity="0.55"/>
    </filter>
  </defs>

  <g filter="url(#softGlow)">
    <path d="M48 6L84 22V47C84 67.4 69.6 82.8 48 90C26.4 82.8 12 67.4 12 47V22L48 6Z" fill="url(#goldGradient)"/>
    <path d="M48 14L76 27V47C76 63.2 64.8 75.9 48 82.2C31.2 75.9 20 63.2 20 47V27L48 14Z" fill="url(#shieldCore)"/>
    <path d="M59.8 30.8C56.4 28.5 52.4 27.2 48 27.2C36.3 27.2 28 35.4 28 47.2C28 59.2 36.1 67.5 48.3 67.5C55.2 67.5 60.9 64.7 64.5 60.1V52.2H48.7V45.4H72.4V62.5C66.8 69.9 58.2 74.2 47.8 74.2C31.7 74.2 20.3 62.8 20.3 47.2C20.3 31.6 31.7 20.4 48.1 20.4C56.3 20.4 63.2 22.9 68.6 27.3L59.8 30.8Z" fill="url(#goldGradient)"/>
  </g>

  <g>
    <text x="106" y="58" font-family="'Segoe UI', 'Inter', Arial, sans-serif" font-size="42" font-weight="800" letter-spacing="1.6" fill="url(#goldText)" stroke="#1A2430" stroke-opacity="0.28" stroke-width="0.8">GOLDGYS</text>
    <text x="108" y="78" font-family="'Segoe UI', 'Inter', Arial, sans-serif" font-size="12" font-weight="600" letter-spacing="2.1" fill="#8A6A2A">ADALET PERSONELİ HAZIRLIK PLATFORMU</text>
  </g>
</svg>
